<?xml version="1.0" encoding="UTF-8" standalone="no"?>
<!DOCTYPE svg PUBLIC "-//W3C//DTD SVG 1.1//EN" "http://www.w3.org/Graphics/SVG/1.1/DTD/svg11.dtd">
<svg width="100%" height="100%" viewBox="0 0 1926 1578" version="1.1" xmlns="http://www.w3.org/2000/svg" xmlns:xlink="http://www.w3.org/1999/xlink" xml:space="preserve"  style="fill-rule:evenodd;clip-rule:evenodd;stroke-linejoin:round;stroke-miterlimit:2;">
    <g transform="matrix(0,-0.507779,2.268247,0,-515.310404,1677.839373)">
        <path d="M608.583,228.24L608.583,327.342C608.583,328.122 607.593,328.763 605.611,329.264C603.63,329.766 601.154,330.016 598.182,330.016C595.21,330.016 592.734,329.793 590.752,329.348C588.771,328.791 587.781,328.122 587.781,327.342L587.781,318.485C587.781,304.447 580.599,290.353 566.235,276.204C547.909,257.709 522.648,244.562 490.453,236.764C478.071,233.755 461.973,232.251 442.161,232.251C428.788,232.251 418.139,233.421 410.214,235.761C399.812,238.658 394.612,243.114 394.612,249.13L394.612,463.712C394.612,469.06 399.193,472.931 408.356,475.327C417.52,477.722 429.778,478.92 445.133,478.92C464.945,478.92 485.252,476.942 506.055,472.987C526.858,469.032 542.708,463.712 553.605,457.027C576.389,443.435 587.781,428.227 587.781,411.404L587.781,383.829C587.781,382.715 588.771,381.879 590.752,381.322C592.734,380.765 595.21,380.486 598.182,380.486C600.658,380.486 602.64,380.709 604.126,381.155C607.097,381.935 608.583,382.826 608.583,383.829L608.583,411.404C608.583,437.363 587.285,456.86 544.689,469.895C514.475,479.254 476.337,483.933 430.274,483.933C396.098,483.933 366.379,481.51 341.119,476.664C315.858,471.817 295.303,463.545 279.453,451.846C250.231,429.898 235.619,403.438 235.619,372.465L235.619,343.72C235.619,321.437 244.163,300.297 261.251,280.298C278.339,260.3 306.2,245.732 344.834,236.596C371.085,230.469 400.803,227.405 433.988,227.405C473.613,227.405 509.275,233.533 540.974,245.788L600.411,228.24L608.583,228.24Z" style="fill:rgb(27,25,0);fill-rule:nonzero;stroke:black;stroke-width:0.61px;"/>
        <path d="M1081.847,327.342L1081.847,389.01C1081.847,424.55 1056.834,450.51 1006.808,466.887C972.137,478.251 928.798,483.933 876.791,483.933C841.624,483.933 809.182,481.092 779.463,475.41C749.745,469.728 726.466,461.372 709.625,450.342C682.384,432.628 668.763,412.963 668.763,391.349L668.763,319.154C668.763,285.507 693.776,260.55 743.801,244.284C778.473,233.031 821.317,227.405 872.333,227.405C897.098,227.405 919.882,228.658 940.685,231.165C961.488,233.672 980.062,237.348 996.407,242.195C1012.752,247.041 1027.487,253.448 1040.613,261.414C1053.738,269.38 1063.025,277.652 1068.474,286.231C1077.389,300.826 1081.847,314.53 1081.847,327.342ZM825.527,456.526C825.527,465.216 831.47,471.511 843.358,475.41C852.273,478.196 863.17,479.588 876.048,479.588C888.43,479.588 899.327,478.335 908.738,475.828C918.149,473.321 922.854,469.728 922.854,465.049L922.854,250.802C922.854,244.785 916.663,239.995 904.28,236.429C895.86,233.867 885.211,232.586 872.333,232.586C860.941,232.586 851.035,233.811 842.615,236.262C831.223,239.605 825.527,244.451 825.527,250.802L825.527,456.526Z" style="fill:rgb(27,25,0);fill-rule:nonzero;stroke:black;stroke-width:0.61px;"/>
        <path d="M1178.431,234.257L1134.597,234.257C1132.12,234.257 1130.015,234.062 1128.282,233.672C1126.548,233.282 1125.681,232.808 1125.681,232.251C1125.681,231.583 1126.548,231.054 1128.282,230.664C1130.015,230.274 1132.12,230.079 1134.597,230.079L1335.938,230.079L1407.262,383.327L1498.645,230.079L1700.73,230.079C1703.702,230.079 1706.178,230.274 1708.159,230.664C1710.14,231.054 1711.131,231.527 1711.131,232.084C1711.131,232.753 1710.14,233.282 1708.159,233.672C1706.178,234.062 1703.702,234.257 1700.73,234.257L1652.438,234.257L1652.438,477.082L1700.73,477.082C1702.216,477.082 1703.206,477.193 1703.702,477.416C1705.187,477.973 1705.93,478.641 1705.93,479.421C1705.93,480.09 1705.435,480.591 1704.444,480.925C1703.454,481.26 1702.216,481.427 1700.73,481.427L1456.297,481.427C1454.316,481.427 1452.458,481.232 1450.725,480.842C1448.991,480.452 1448.124,479.923 1448.124,479.254C1448.124,478.586 1448.991,478.056 1450.725,477.666C1452.458,477.277 1454.316,477.082 1456.297,477.082L1507.561,477.082L1507.561,245.12L1376.801,475.577C1374.819,478.586 1373.086,480.313 1371.6,480.758C1370.114,481.204 1367.885,481.427 1364.913,481.427L1316.621,481.427C1313.649,481.427 1311.42,481.204 1309.934,480.758C1308.449,480.313 1306.963,478.586 1305.477,475.577L1198.491,247.459L1198.491,459.367C1198.491,465.16 1201.091,469.227 1206.292,471.567C1211.493,473.906 1220.532,475.577 1233.41,476.58L1266.843,477.249C1269.319,477.583 1270.558,478.251 1270.558,479.254C1270.558,480.145 1269.939,480.73 1268.7,481.009C1267.462,481.287 1264.366,481.427 1259.413,481.427L1127.91,481.427C1125.929,481.427 1124.319,481.26 1123.081,480.925C1121.843,480.591 1121.223,480.145 1121.223,479.588C1121.223,479.031 1121.843,478.613 1123.081,478.335C1124.319,478.056 1128.653,477.583 1136.083,476.914C1151.437,475.577 1161.838,473.851 1167.287,471.734C1174.716,468.837 1178.431,464.715 1178.431,459.367L1178.431,234.257Z" style="fill:rgb(27,25,0);fill-rule:nonzero;stroke:black;stroke-width:0.61px;"/>
        <path d="M1800.286,234.257L1752.737,234.257C1747.784,233.477 1745.307,232.808 1745.307,232.251C1745.307,231.471 1747.784,230.747 1752.737,230.079L2174.736,230.079L2174.736,323.164C2171.764,324.279 2168.792,324.836 2165.821,324.836C2162.849,324.836 2160.744,324.641 2159.505,324.251C2158.267,323.861 2157.4,322.273 2156.905,319.488C2153.438,300.993 2140.56,283.78 2118.271,267.848C2095.983,251.916 2074.437,241.833 2053.634,237.599C2042.737,235.371 2024.411,234.257 1998.655,234.257L1952.592,234.257L1952.592,351.909C1980.824,351.24 2003.856,347.898 2021.687,341.882C2045.462,333.749 2057.349,321.27 2057.349,304.447L2057.349,291.412C2057.349,290.855 2058.216,290.381 2059.949,289.991C2061.683,289.601 2063.788,289.406 2066.264,289.406C2068.741,289.406 2070.722,289.601 2072.208,289.991C2073.694,290.381 2074.437,290.855 2074.437,291.412L2074.437,415.582C2074.437,416.139 2073.694,416.612 2072.208,417.002C2070.722,417.392 2068.741,417.587 2066.264,417.587C2063.788,417.587 2061.683,417.392 2059.949,417.002C2058.216,416.612 2057.349,416.139 2057.349,415.582L2057.349,403.549C2057.349,387.06 2043.976,373.969 2017.229,364.276C2001.38,358.705 1984.787,355.92 1967.451,355.92C1962.993,355.92 1959.526,356.254 1957.05,356.923C1954.078,357.702 1952.592,358.928 1952.592,360.599L1952.592,477.082L1976.367,477.082C1996.674,477.082 2016.734,475.382 2036.546,471.984C2056.358,468.586 2074.932,462.681 2092.268,454.27C2109.604,445.858 2122.977,436.694 2132.388,426.779C2147.742,410.735 2155.419,398.201 2155.419,389.177L2155.419,378.147C2158.886,376.921 2162.106,376.308 2165.078,376.308C2168.049,376.308 2170.402,376.476 2172.136,376.81C2173.869,377.144 2174.736,377.59 2174.736,378.147L2174.736,481.427L1752.737,481.427C1749.27,481.427 1746.545,481.204 1744.564,480.758C1742.583,480.313 1741.592,479.811 1741.592,479.254C1741.592,478.586 1742.583,478.056 1744.564,477.666C1746.545,477.277 1749.27,477.082 1752.737,477.082L1800.286,477.082L1800.286,234.257Z" style="fill:rgb(27,25,0);fill-rule:nonzero;stroke:black;stroke-width:0.61px;"/>
        <path d="M2610.109,233.588L2692.577,233.588L2824.823,477.082L2858.256,477.082C2863.705,477.861 2866.429,478.586 2866.429,479.254C2866.429,479.923 2863.705,480.647 2858.256,481.427L2634.626,481.427C2632.15,481.427 2630.169,481.232 2628.683,480.842C2627.197,480.452 2626.454,479.923 2626.454,479.254C2626.454,478.586 2627.197,478.056 2628.683,477.666C2630.169,477.277 2632.15,477.082 2634.626,477.082L2670.288,477.082L2650.971,429.62L2516.496,429.62L2500.151,456.526C2499.656,457.974 2499.408,459.478 2499.408,461.038C2499.408,465.94 2503.494,469.645 2511.667,472.152C2519.839,474.658 2531.108,476.19 2545.471,476.747L2557.359,477.583C2559.34,478.029 2560.331,478.586 2560.331,479.254C2560.331,479.923 2559.464,480.452 2557.73,480.842C2555.997,481.232 2553.892,481.427 2551.415,481.427L2424.37,481.427C2421.893,481.427 2419.788,481.232 2418.054,480.842C2416.321,480.452 2415.454,479.923 2415.454,479.254C2415.454,478.586 2416.197,478.029 2417.683,477.583L2426.598,476.914C2440.962,476.469 2452.107,475.02 2460.031,472.569C2471.919,468.67 2480.339,462.208 2485.292,453.183L2610.109,233.588ZM2591.535,295.924L2518.725,425.274L2648.742,425.274L2591.535,295.924Z" style="fill:rgb(27,25,0);fill-rule:nonzero;stroke:black;stroke-width:0.61px;"/>
        <path d="M2996.446,466.887C2979.606,469.561 2962.394,472.876 2944.811,476.831C2927.227,480.786 2916.455,482.764 2912.492,482.764C2911.006,482.764 2909.768,482.596 2908.777,482.262C2907.787,481.928 2907.291,481.204 2907.291,480.09L2907.291,375.139C2907.291,374.693 2907.911,374.331 2909.149,374.052C2910.387,373.774 2911.749,373.635 2913.235,373.635C2915.712,373.635 2917.94,373.969 2919.922,374.637C2923.389,375.64 2925.122,376.754 2925.122,377.98L2925.122,385.166C2925.122,399.092 2934.781,414.969 2954.098,432.795C2973.415,450.621 2998.675,463.322 3029.879,470.898C3045.234,474.686 3063.065,476.58 3083.372,476.58C3106.651,476.58 3126.959,474.101 3144.295,469.143C3161.63,464.185 3170.298,456.693 3170.298,446.666C3170.298,437.084 3162.373,426.946 3146.523,416.25C3125.721,401.989 3079.657,379.149 3008.334,347.731C2963.756,328.122 2935.4,313.945 2923.265,305.199C2911.13,296.453 2905.063,287.958 2905.063,279.713C2905.063,263.336 2922.274,250.523 2956.698,241.276C2991.122,232.029 3030.375,227.405 3074.457,227.405C3112.1,227.405 3146.028,231.917 3176.242,240.942C3201.007,237.933 3225.029,234.201 3248.309,229.745C3256.233,228.185 3261.434,227.405 3263.911,227.405C3264.901,227.405 3265.892,227.516 3266.882,227.739C3267.873,228.185 3268.368,228.965 3268.368,230.079L3268.368,320.825C3268.368,322.05 3267.13,323.053 3264.654,323.833C3263.168,324.279 3261.186,324.501 3258.71,324.501C3255.738,324.501 3253.509,324.223 3252.023,323.666C3250.537,323.109 3247.566,319.098 3243.108,311.633C3222.8,276.984 3195.806,254.033 3162.126,242.78C3142.313,236.318 3119.777,233.087 3094.517,233.087C3075.695,233.087 3059.35,234.981 3045.481,238.769C3031.613,242.557 3024.679,248.128 3024.679,255.481C3024.679,268.739 3058.359,290.52 3125.721,320.825L3191.101,350.405C3236.174,370.793 3266.14,386.976 3280.999,398.953C3295.858,410.93 3303.287,421.654 3303.287,431.124C3303.287,447.613 3285.209,460.537 3249.052,469.895C3212.894,479.254 3170.546,483.933 3122.006,483.933C3069.504,483.933 3027.65,478.251 2996.446,466.887Z" style="fill:rgb(27,25,0);fill-rule:nonzero;stroke:black;stroke-width:0.61px;"/>
        <path d="M2017.229,645.815L1895.384,523.484L1865.666,523.484C1863.19,523.484 1861.208,523.289 1859.722,522.899C1858.237,522.509 1857.494,521.98 1857.494,521.311C1857.494,520.531 1858.237,519.974 1859.722,519.64C1861.208,519.306 1863.19,519.139 1865.666,519.139L2107.127,519.139C2112.575,519.919 2115.3,520.587 2115.3,521.144C2115.3,521.924 2112.575,522.704 2107.127,523.484L2047.69,523.484L2162.849,637.626L2249.032,548.719C2252.499,545.376 2254.232,542.257 2254.232,539.36C2254.232,535.126 2251.261,531.701 2245.317,529.082C2239.373,526.464 2231.201,524.709 2220.799,523.818L2196.282,523.15C2193.31,522.815 2191.824,522.203 2191.824,521.311C2191.824,520.531 2194.548,519.807 2199.997,519.139L2320.356,519.139C2325.804,519.139 2329.519,519.25 2331.5,519.473L2333.729,520.309C2333.729,521.088 2330.757,521.924 2324.813,522.815C2300.048,526.046 2282.96,532.453 2273.549,542.034L2171.021,645.815L2171.021,766.141L2229.715,766.141C2232.191,766.141 2234.296,766.336 2236.03,766.726C2237.764,767.116 2238.63,767.646 2238.63,768.314C2238.63,768.982 2237.764,769.512 2236.03,769.902C2234.296,770.292 2232.191,770.487 2229.715,770.487L1955.564,770.487C1953.087,770.487 1951.106,770.292 1949.62,769.902C1948.134,769.512 1947.391,768.982 1947.391,768.314C1947.391,767.646 1948.134,767.116 1949.62,766.726C1951.106,766.336 1953.087,766.141 1955.564,766.141L2017.229,766.141L2017.229,645.815Z" style="fill:rgb(27,25,0);fill-rule:nonzero;stroke:black;stroke-width:0.61px;"/>
        <path d="M2789.161,616.402L2789.161,678.069C2789.161,713.61 2764.148,739.569 2714.123,755.947C2679.451,767.311 2636.112,772.993 2584.105,772.993C2548.939,772.993 2516.496,770.152 2486.778,764.47C2457.06,758.788 2433.78,750.432 2416.94,739.402C2389.698,721.688 2376.077,702.023 2376.077,680.409L2376.077,608.213C2376.077,574.567 2401.09,549.61 2451.116,533.344C2485.787,522.091 2528.631,516.465 2579.648,516.465C2604.413,516.465 2627.197,517.718 2648,520.225C2668.802,522.732 2687.376,526.408 2703.721,531.255C2720.066,536.101 2734.802,542.508 2747.927,550.474C2761.053,558.44 2770.34,566.712 2775.788,575.291C2784.704,589.886 2789.161,603.59 2789.161,616.402ZM2532.841,745.586C2532.841,754.276 2538.785,760.571 2550.672,764.47C2559.588,767.256 2570.484,768.648 2583.362,768.648C2595.745,768.648 2606.642,767.395 2616.052,764.888C2625.463,762.381 2630.169,758.788 2630.169,754.109L2630.169,539.862C2630.169,533.845 2623.977,529.054 2611.595,525.489C2603.174,522.927 2592.525,521.645 2579.648,521.645C2568.256,521.645 2558.349,522.871 2549.929,525.322C2538.537,528.665 2532.841,533.511 2532.841,539.862L2532.841,745.586Z" style="fill:rgb(27,25,0);fill-rule:nonzero;stroke:black;stroke-width:0.61px;"/>
        <path d="M2890.203,523.484L2846.369,523.484C2840.921,522.593 2838.196,521.868 2838.196,521.311C2838.196,520.643 2840.921,519.919 2846.369,519.139L3084.858,519.139C3087.335,519.139 3089.316,519.334 3090.802,519.724C3092.288,520.114 3093.031,520.587 3093.031,521.144C3093.031,521.924 3092.288,522.509 3090.802,522.899C3089.316,523.289 3087.335,523.484 3084.858,523.484L3043.253,523.484L3043.253,753.44C3043.253,758.12 3048.949,761.741 3060.341,764.303C3071.733,766.866 3087.087,768.147 3106.404,768.147C3141.57,768.147 3170.67,764.999 3193.701,758.705C3216.733,752.41 3228.249,742.466 3228.249,728.874L3228.249,544.875C3228.249,536.519 3225.153,531.199 3218.962,528.915C3212.77,526.631 3201.007,525.044 3183.671,524.152C3174.756,523.707 3168.936,523.177 3166.212,522.565C3163.488,521.952 3162.126,521.311 3162.126,520.643L3163.611,519.473L3169.555,519.139L3286.942,519.139C3289.914,519.139 3293.629,519.751 3298.087,520.977C3298.087,521.534 3296.972,522.035 3294.743,522.481C3292.514,522.927 3288.676,523.261 3283.228,523.484C3273.321,523.818 3265.644,525.099 3260.196,527.328C3250.785,530.893 3246.08,536.742 3246.08,544.875L3246.08,733.553C3246.08,746.477 3231.344,756.281 3201.874,762.966C3172.403,769.651 3129.931,772.993 3074.457,772.993C3004.619,772.993 2954.098,768.982 2922.894,760.961C2901.1,755.279 2890.203,744.583 2890.203,728.874L2890.203,523.484Z" style="fill:rgb(27,25,0);fill-rule:nonzero;stroke:black;stroke-width:0.61px;"/>
        <path d="M242.471,827.005L206.809,827.005C201.361,826.225 198.636,825.501 198.636,824.832C198.636,824.164 201.361,823.44 206.809,822.66L437.126,822.66C439.602,822.66 441.583,822.855 443.069,823.245C444.555,823.635 445.298,824.164 445.298,824.832C445.298,825.501 444.555,826.03 443.069,826.42C441.583,826.81 439.602,827.005 437.126,827.005L397.006,827.005L466.844,995.796L538.168,842.213L531.481,827.005L494.333,827.005C491.857,827.005 489.752,826.81 488.018,826.42C486.284,826.03 485.418,825.501 485.418,824.832C485.418,824.164 486.284,823.635 488.018,823.245C489.752,822.855 491.857,822.66 494.333,822.66L727.622,822.66C733.07,823.44 735.794,824.164 735.794,824.832C735.794,825.501 733.07,826.225 727.622,827.005L685.273,827.005L755.854,995.796L828.664,845.889C829.159,844.218 829.407,842.714 829.407,841.377C829.407,837.478 826.93,834.358 821.977,832.018C817.024,829.679 809.842,828.119 800.431,827.339L778.143,826.671C775.171,826.336 773.685,825.724 773.685,824.832C773.685,824.164 776.409,823.44 781.857,822.66L905.188,822.66C910.637,823.44 913.361,824.164 913.361,824.832C913.361,825.389 912.742,825.863 911.503,826.253C910.265,826.643 908.16,826.893 905.188,827.005C892.31,827.339 880.918,829.01 871.012,832.018C857.144,836.029 848.724,841.21 845.752,847.561L746.938,1055.624C741.985,1065.429 737.528,1071.055 733.565,1072.503C731.089,1073.506 726.631,1074.008 720.192,1074.008L666.699,1074.008C659.27,1074.008 653.574,1073.339 649.611,1072.002L640.696,1053.452L547.083,861.766L457.928,1055.624C452.975,1066.209 449.508,1071.779 447.527,1072.336C444.555,1073.451 438.364,1074.008 428.953,1074.008L375.46,1074.008C369.516,1074.008 365.306,1073.506 362.83,1072.503C360.849,1071.835 357.629,1066.877 353.171,1057.63L242.471,827.005Z" style="fill:rgb(27,25,0);fill-rule:nonzero;stroke:black;stroke-width:0.61px;"/>
        <path d="M1050.808,826.169L1133.276,826.169L1265.522,1069.662L1298.955,1069.662C1304.404,1070.442 1307.128,1071.167 1307.128,1071.835C1307.128,1072.503 1304.404,1073.228 1298.955,1074.008L1075.325,1074.008C1072.849,1074.008 1070.868,1073.813 1069.382,1073.423C1067.896,1073.033 1067.153,1072.503 1067.153,1071.835C1067.153,1071.167 1067.896,1070.637 1069.382,1070.247C1070.868,1069.857 1072.849,1069.662 1075.325,1069.662L1110.987,1069.662L1091.67,1022.201L957.195,1022.201L940.85,1049.107C940.355,1050.555 940.107,1052.059 940.107,1053.619C940.107,1058.521 944.193,1062.226 952.366,1064.732C960.539,1067.239 971.807,1068.771 986.171,1069.328L998.058,1070.164C1000.039,1070.609 1001.03,1071.167 1001.03,1071.835C1001.03,1072.503 1000.163,1073.033 998.429,1073.423C996.696,1073.813 994.591,1074.008 992.114,1074.008L865.069,1074.008C862.592,1074.008 860.487,1073.813 858.753,1073.423C857.02,1073.033 856.153,1072.503 856.153,1071.835C856.153,1071.167 856.896,1070.609 858.382,1070.164L867.297,1069.495C881.661,1069.05 892.806,1067.601 900.731,1065.15C912.618,1061.251 921.038,1054.789 925.991,1045.764L1050.808,826.169ZM1032.234,888.505L959.424,1017.855L1089.442,1017.855L1032.234,888.505Z" style="fill:rgb(27,25,0);fill-rule:nonzero;stroke:black;stroke-width:0.61px;"/>
        <path d="M1516.642,826.169L1599.11,826.169L1731.356,1069.662L1764.789,1069.662C1770.238,1070.442 1772.962,1071.167 1772.962,1071.835C1772.962,1072.503 1770.238,1073.228 1764.789,1074.008L1541.159,1074.008C1538.683,1074.008 1536.701,1073.813 1535.216,1073.423C1533.73,1073.033 1532.987,1072.503 1532.987,1071.835C1532.987,1071.167 1533.73,1070.637 1535.216,1070.247C1536.701,1069.857 1538.683,1069.662 1541.159,1069.662L1576.821,1069.662L1557.504,1022.201L1423.029,1022.201L1406.684,1049.107C1406.189,1050.555 1405.941,1052.059 1405.941,1053.619C1405.941,1058.521 1410.027,1062.226 1418.2,1064.732C1426.372,1067.239 1437.641,1068.771 1452.004,1069.328L1463.892,1070.164C1465.873,1070.609 1466.864,1071.167 1466.864,1071.835C1466.864,1072.503 1465.997,1073.033 1464.263,1073.423C1462.53,1073.813 1460.425,1074.008 1457.948,1074.008L1330.902,1074.008C1328.426,1074.008 1326.321,1073.813 1324.587,1073.423C1322.854,1073.033 1321.987,1072.503 1321.987,1071.835C1321.987,1071.167 1322.73,1070.609 1324.216,1070.164L1333.131,1069.495C1347.495,1069.05 1358.639,1067.601 1366.564,1065.15C1378.452,1061.251 1386.872,1054.789 1391.825,1045.764L1516.642,826.169ZM1498.068,888.505L1425.258,1017.855L1555.275,1017.855L1498.068,888.505Z" style="fill:rgb(27,25,0);fill-rule:nonzero;stroke:black;stroke-width:0.61px;"/>
        <path d="M1888.863,1007.995L1816.053,858.925C1812.091,851.237 1810.11,847.003 1810.11,846.224C1810.11,837.756 1818.654,831.378 1835.742,827.088C1852.83,822.799 1874.004,820.654 1899.264,820.654C1923.534,820.654 1944.213,822.799 1961.301,827.088C1978.389,831.378 1986.933,837.589 1986.933,845.722C1986.933,848.173 1985.2,852.574 1981.733,858.925L1908.18,1007.995C1907.685,1008.887 1906.199,1009.611 1903.722,1010.168L1898.521,1010.836C1896.045,1010.836 1894.064,1010.614 1892.578,1010.168C1890.597,1009.611 1889.358,1008.887 1888.863,1007.995ZM1895.55,1036.071C1914.866,1036.071 1931.211,1037.826 1944.585,1041.336C1957.958,1044.845 1964.645,1049.72 1964.645,1055.959C1964.645,1062.198 1957.71,1067.1 1943.842,1070.665C1929.973,1074.23 1913.628,1076.013 1894.807,1076.013C1876.48,1076.013 1861.002,1074.425 1848.372,1071.25C1835.742,1068.075 1829.426,1063.368 1829.426,1057.128C1829.426,1050.109 1835.865,1044.845 1848.743,1041.336C1861.621,1037.826 1877.223,1036.071 1895.55,1036.071Z" style="fill:rgb(27,25,0);fill-rule:nonzero;stroke:black;stroke-width:0.61px;"/>
    </g>

</svg>
